<?xml version="1.0" standalone="no"?>
<!DOCTYPE svg PUBLIC "-//W3C//DTD SVG 20010904//EN"
 "http://www.w3.org/TR/2001/REC-SVG-20010904/DTD/svg10.dtd">
<svg version="1.0" xmlns="http://www.w3.org/2000/svg"
 width="974.000000pt" height="813.000000pt" viewBox="0 0 974.000000 813.000000"
 preserveAspectRatio="xMidYMid meet">

<g transform="translate(0.000000,813.000000) scale(0.100000,-0.100000)"
fill="#000000" stroke="none">
<path d="M2931 6256 c-48 -27 -50 -41 -51 -354 0 -319 4 -342 56 -362 15 -6
375 -10 920 -10 985 0 941 -3 963 61 15 44 15 574 0 618 -22 64 23 61 -966 61
-726 -1 -903 -3 -922 -14z m1841 -43 c17 -15 18 -38 18 -314 0 -257 -2 -300
-16 -313 -14 -14 -111 -16 -919 -16 -808 0 -905 2 -919 16 -14 13 -16 56 -16
311 0 262 2 299 17 315 15 17 57 18 916 18 824 0 902 -1 919 -17z"/>
<path d="M4069 6113 c-1 -5 -1 -16 0 -25 1 -10 -4 -18 -13 -18 -24 0 -56 -37
-56 -65 0 -27 18 -33 38 -13 9 9 12 9 12 -1 0 -23 23 -5 25 20 1 13 5 43 9 67
5 28 4 42 -3 42 -6 0 -12 -3 -12 -7z m-9 -71 c0 -11 -9 -27 -20 -37 -19 -18
-20 -17 -20 6 0 25 16 49 32 49 4 0 8 -8 8 -18z"/>
<path d="M4505 6110 c3 -5 10 -10 16 -10 5 0 9 5 9 10 0 6 -7 10 -16 10 -8 0
-12 -4 -9 -10z"/>
<path d="M3089 6089 c-28 -28 -23 -89 9 -105 28 -14 58 -8 66 12 5 13 3 13
-16 0 -43 -30 -76 16 -52 73 15 36 56 43 73 14 9 -16 10 -16 11 5 0 19 -5 22
-35 22 -22 0 -43 -8 -56 -21z"/>
<path d="M4473 6090 c-3 -11 -9 -20 -12 -20 -4 0 -8 -8 -8 -17 1 -59 -5 -85
-24 -104 -11 -11 -18 -24 -14 -27 12 -12 44 38 50 76 10 55 13 62 30 62 12 0
14 -8 9 -41 -5 -31 -4 -41 6 -37 6 2 13 23 15 46 3 39 2 42 -21 42 -21 0 -24
4 -19 20 3 11 3 20 0 20 -4 0 -9 -9 -12 -20z"/>
<path d="M4410 6089 c0 -5 5 -7 10 -4 6 3 10 8 10 11 0 2 -4 4 -10 4 -5 0 -10
-5 -10 -11z"/>
<path d="M3399 6083 c-1 -9 -6 -37 -13 -75 -4 -20 -1 -28 9 -28 7 0 17 5 21
12 4 7 3 8 -4 4 -8 -5 -10 3 -5 26 3 18 10 34 14 36 10 4 0 32 -12 32 -5 0 -9
-3 -10 -7z"/>
<path d="M4329 6083 c-2 -30 -9 -66 -14 -83 -4 -14 -2 -20 9 -20 8 0 18 5 21
10 3 6 2 10 -3 10 -5 0 -7 14 -4 30 2 18 10 30 19 30 12 0 12 2 -1 15 -16 16
-26 19 -27 8z"/>
<path d="M3209 6068 c0 -2 -3 -22 -5 -45 -5 -45 8 -57 34 -31 9 9 12 9 12 0 0
-7 6 -12 13 -12 8 0 12 15 12 44 0 24 -3 42 -7 39 -5 -2 -8 -10 -8 -17 0 -16
-38 -61 -45 -54 -3 3 -1 17 5 32 13 34 13 46 0 46 -5 0 -10 -1 -11 -2z"/>
<path d="M3323 6054 c-3 -9 -1 -25 5 -35 16 -25 15 -32 -3 -26 -17 7 -30 -9
-15 -18 13 -8 50 13 50 29 0 8 -7 19 -15 26 -8 7 -15 16 -15 21 0 5 7 6 15 3
8 -4 15 -1 15 5 0 17 -30 13 -37 -5z"/>
<path d="M3466 6048 c-20 -28 -20 -52 -1 -68 22 -19 67 24 63 60 -4 34 -41 39
-62 8z m42 -29 c-3 -27 -38 -40 -38 -14 0 9 5 26 11 37 14 25 32 10 27 -23z"/>
<path d="M3567 6064 c-3 -3 -3 -11 -1 -18 3 -7 0 -25 -5 -39 -7 -18 -7 -27 -1
-27 12 0 30 43 30 71 0 19 -11 25 -23 13z"/>
<path d="M3610 6060 c-12 -8 -12 -10 -1 -10 10 0 12 -9 6 -36 -4 -24 -3 -34 4
-29 6 3 11 12 11 19 0 7 9 21 21 32 l21 19 -7 -39 c-6 -29 -5 -38 5 -34 13 4
25 88 12 88 -4 0 -14 -6 -21 -12 -11 -10 -14 -10 -18 0 -6 14 -13 15 -33 2z"/>
<path d="M3764 6054 c0 -9 -5 -19 -13 -22 -10 -3 -12 1 -8 14 6 17 6 17 -8 -1
-17 -22 -17 -66 0 -72 6 -2 20 4 30 12 20 16 20 16 -2 10 -34 -9 -37 13 -3 30
30 16 36 35 13 42 -6 2 -10 -4 -9 -13z"/>
<path d="M3819 6066 c-3 -8 -6 -86 -3 -86 2 0 10 16 18 35 8 19 20 35 25 35 6
0 11 4 11 9 0 6 -48 14 -51 7z"/>
<path d="M3955 6064 c-13 -5 -7 -84 6 -84 5 0 9 20 9 45 0 25 -1 45 -2 44 -2
0 -8 -3 -13 -5z"/>
<path d="M4154 6054 c0 -9 -5 -19 -12 -21 -8 -3 -10 2 -6 14 5 16 4 16 -10 -1
-9 -11 -16 -30 -16 -43 0 -18 6 -23 24 -23 14 0 27 4 30 9 4 5 -3 7 -14 4 -28
-7 -26 20 3 32 23 11 30 36 11 42 -7 2 -11 -4 -10 -13z"/>
<path d="M4219 6068 c0 -2 -3 -23 -5 -48 l-5 -45 19 30 c18 29 19 65 1 65 -5
0 -9 -1 -10 -2z"/>
<path d="M4263 6063 c-7 -2 -13 -9 -13 -14 0 -6 4 -8 9 -4 6 3 7 -9 4 -31 -4
-27 -3 -36 7 -32 6 2 13 23 15 46 3 42 1 45 -22 35z"/>
<path d="M4399 6068 c0 -2 -2 -12 -3 -23 -2 -11 -6 -31 -10 -43 -6 -19 -5 -23
9 -20 13 2 18 14 19 46 1 23 -1 42 -6 42 -4 0 -8 -1 -9 -2z"/>
<path d="M4577 6052 c-24 -27 -22 -72 2 -72 11 0 23 4 26 10 3 5 0 7 -8 4 -26
-10 -28 13 -2 30 27 18 34 46 12 46 -8 0 -21 -8 -30 -18z m33 -1 c0 -12 -20
-25 -27 -18 -7 7 6 27 18 27 5 0 9 -4 9 -9z"/>
<path d="M4647 6051 c-9 -11 -9 -13 0 -8 9 5 11 -3 7 -30 l-4 -38 16 38 c9 20
23 37 30 37 8 0 14 4 14 9 0 14 -50 7 -63 -8z"/>
<path d="M3660 5838 c-19 -35 -30 -67 -30 -93 0 -48 7 -61 42 -74 35 -13 78
18 78 58 0 34 -24 69 -51 73 -20 3 -20 4 5 41 31 46 31 47 6 47 -13 0 -29 -17
-50 -52z m50 -102 c0 -32 -20 -44 -36 -22 -16 23 -7 46 17 46 13 0 19 -7 19
-24z"/>
<path d="M4013 5838 c-39 -52 -63 -91 -63 -102 0 -3 18 -6 40 -6 38 0 40 -2
40 -30 0 -23 4 -30 20 -30 16 0 20 7 21 33 3 65 -3 172 -10 180 -5 4 -26 -16
-48 -45z m17 -53 c0 -18 -5 -25 -20 -25 -20 0 -20 1 -4 25 9 14 18 25 20 25 2
0 4 -11 4 -25z"/>
<path d="M4334 5880 c-23 -9 -38 -36 -24 -45 5 -3 11 -1 15 5 10 17 43 11 50
-9 7 -23 -7 -60 -40 -109 -14 -20 -25 -40 -25 -44 0 -5 27 -8 60 -8 47 0 60 3
60 15 0 10 -10 15 -30 15 -36 0 -36 0 -10 50 42 83 11 154 -56 130z"/>
<path d="M3066 5865 c4 -9 19 -15 35 -15 l29 0 0 -90 c0 -83 1 -90 20 -90 19
0 20 7 20 90 l0 90 35 0 c24 0 35 5 35 15 0 12 -17 15 -90 15 -75 0 -88 -2
-84 -15z"/>
<path d="M3290 5865 c0 -14 17 -20 47 -16 23 3 22 -18 -2 -83 -29 -78 -31 -99
-9 -94 10 2 28 37 50 98 19 52 34 98 34 103 0 4 -27 7 -60 7 -47 0 -60 -3 -60
-15z"/>
<path d="M3500 5775 c0 -98 1 -105 20 -105 19 0 20 7 20 105 0 98 -1 105 -20
105 -19 0 -20 -7 -20 -105z"/>
<path d="M3810 5865 c0 -9 9 -15 25 -15 32 0 45 -28 22 -45 -21 -15 -22 -41
-1 -49 9 -3 14 -15 12 -28 -2 -19 -9 -23 -36 -21 -26 1 -32 -3 -30 -15 5 -25
78 -29 95 -6 15 21 17 66 3 80 -6 6 -6 21 2 41 10 28 9 35 -7 52 -22 25 -85
29 -85 6z"/>
<path d="M4151 5866 c-7 -8 -11 -34 -11 -58 1 -23 -2 -57 -5 -74 -13 -61 74
-93 110 -41 19 27 19 52 1 70 -9 9 -11 19 -5 28 13 20 11 63 -3 77 -16 16 -73
15 -87 -2z m62 -28 c6 -19 -3 -38 -18 -38 -18 0 -28 17 -21 35 7 18 33 20 39
3z m2 -108 c0 -18 -6 -26 -22 -28 -18 -3 -23 1 -23 21 0 28 9 39 30 35 9 -2
15 -14 15 -28z"/>
<path d="M4520 5775 c0 -87 3 -105 15 -105 12 0 15 18 15 105 0 87 -3 105 -15
105 -12 0 -15 -18 -15 -105z"/>
<path d="M5156 6036 c-83 -42 -106 -148 -49 -224 66 -87 195 -82 254 10 16 26
19 45 16 91 -3 49 -8 62 -37 92 -32 33 -81 54 -124 52 -10 0 -37 -10 -60 -21z
m154 -89 c0 -7 -23 -35 -50 -62 l-50 -49 -32 32 c-22 22 -29 35 -22 42 7 7 16
4 29 -10 18 -20 18 -20 61 20 45 41 64 49 64 27z"/>
<path d="M2945 5440 c-11 -4 -30 -19 -43 -32 l-23 -25 3 -441 3 -441 23 -23
23 -23 575 -3 575 -2 30 29 29 29 0 432 c0 468 -1 473 -55 498 -30 14 -1106
16 -1140 2z m1140 -44 c18 -13 19 -35 19 -442 1 -396 0 -430 -16 -446 -17 -17
-58 -18 -583 -18 -548 0 -565 1 -575 19 -6 13 -10 170 -10 442 0 379 2 424 17
441 15 17 46 18 573 18 456 0 560 -2 575 -14z"/>
<path d="M3084 5276 c0 -30 -6 -62 -14 -70 -11 -14 -9 -16 16 -16 18 0 24 3
17 8 -8 5 -10 21 -6 45 7 43 16 40 44 -15 24 -47 32 -41 43 32 4 24 12 50 18
57 8 10 5 13 -11 13 -17 0 -21 -5 -17 -17 3 -10 2 -33 -2 -52 l-7 -34 -32 52
c-18 28 -36 51 -40 51 -4 0 -8 -25 -9 -54z"/>
<path d="M3216 5258 c-20 -28 -21 -68 -2 -68 8 0 18 5 21 10 3 6 1 10 -4 10
-16 0 -13 36 4 50 21 18 30 5 18 -23 -7 -14 -8 -30 -3 -38 13 -20 22 -5 26 41
4 37 2 40 -20 40 -14 0 -32 -10 -40 -22z"/>
<path d="M3315 5270 c-3 -5 -2 -10 4 -10 6 0 6 -11 0 -32 -11 -40 -11 -38 1
-38 6 0 10 6 10 14 0 17 49 77 50 61 0 -6 -4 -25 -9 -43 -13 -42 1 -41 20 2
20 43 9 67 -20 49 -13 -8 -22 -9 -26 -3 -8 13 -22 13 -30 0z"/>
<path d="M3424 5235 c-2 -58 17 -55 21 3 2 27 -1 42 -8 42 -7 0 -13 -18 -13
-45z"/>
<path d="M3486 5258 c-31 -44 -10 -83 31 -59 17 11 17 11 -1 9 -29 -4 -30 17
-1 30 14 6 25 18 25 27 0 23 -37 18 -54 -7z m32 0 c-2 -6 -10 -14 -16 -16 -7
-2 -10 2 -6 12 7 18 28 22 22 4z"/>
<path d="M3258 5084 c-36 -19 -48 -43 -48 -94 0 -65 45 -99 120 -91 30 4 70
59 70 97 0 46 -14 70 -50 89 -36 19 -57 18 -92 -1z m78 -32 c51 -34 25 -122
-36 -122 -35 0 -54 23 -54 65 0 18 6 40 13 49 14 17 58 21 77 8z"/>
<path d="M3780 5076 c0 -16 6 -18 39 -13 22 3 42 3 44 0 3 -2 -17 -40 -43 -84
l-49 -79 79 0 c64 0 80 3 80 15 0 11 -12 15 -51 15 -51 0 -51 0 -35 23 31 44
75 122 73 131 -1 5 -32 10 -69 10 -60 1 -68 -1 -68 -18z"/>
<path d="M3060 4995 l0 -95 60 0 c46 0 60 3 60 14 0 10 -14 16 -42 18 l-43 3
3 57 c4 66 -4 98 -24 98 -11 0 -14 -19 -14 -95z"/>
<path d="M3450 4995 c0 -88 1 -95 20 -95 17 0 20 7 20 40 0 37 2 40 29 40 31
0 45 12 56 48 11 38 -19 62 -77 62 l-48 0 0 -95z m85 40 c0 -13 -8 -21 -22
-23 -19 -3 -23 1 -23 23 0 22 4 26 23 23 14 -2 22 -10 22 -23z"/>
<path d="M3620 4995 l0 -95 60 0 c47 0 60 3 60 15 0 11 -11 15 -40 15 -36 0
-40 3 -40 25 0 22 4 25 35 25 24 0 35 5 35 15 0 10 -11 15 -35 15 -31 0 -35 3
-35 25 0 17 6 26 18 27 9 0 22 2 27 3 6 2 16 3 23 4 6 0 12 6 12 11 0 6 -27
10 -60 10 l-60 0 0 -95z"/>
<path d="M3090 4695 c0 -69 3 -85 15 -85 11 0 15 13 15 53 l0 52 20 -25 20
-25 20 25 20 25 0 -52 c0 -40 4 -53 15 -53 12 0 15 16 15 85 0 94 -12 109 -43
55 -10 -16 -22 -30 -27 -30 -5 0 -16 14 -25 30 -9 17 -22 30 -30 30 -12 0 -15
-17 -15 -85z"/>
<path d="M3280 4695 c0 -69 3 -85 15 -85 12 0 15 16 15 85 0 69 -3 85 -15 85
-12 0 -15 -16 -15 -85z"/>
<path d="M3350 4695 c0 -69 3 -85 15 -85 11 0 15 11 15 37 l0 36 33 -38 c46
-53 68 -43 27 13 -31 43 -31 43 -12 70 32 46 34 52 18 52 -8 0 -27 -17 -41
-37 l-25 -38 0 38 c0 26 -4 37 -15 37 -12 0 -15 -16 -15 -85z"/>
<path d="M3503 4698 l4 -83 46 -3 c28 -2 47 1 47 7 0 6 -6 11 -12 12 -7 1 -22
2 -33 3 -13 0 -21 9 -23 24 -3 19 1 22 27 22 21 0 31 5 31 15 0 10 -10 15 -30
15 -23 0 -30 4 -30 20 0 16 7 20 35 20 24 0 35 5 35 15 0 11 -12 15 -51 15
l-50 0 4 -82z"/>
<path d="M4496 5100 c-67 -21 -111 -89 -104 -161 9 -93 79 -147 176 -136 38 4
53 13 83 45 48 51 58 97 34 158 -28 74 -115 117 -189 94z m134 -100 c0 -14
-90 -110 -103 -110 -18 0 -57 42 -57 62 0 23 9 23 35 -2 l21 -20 39 40 c38 39
65 51 65 30z"/>
<path d="M3577 4350 l-649 -5 -24 -28 -25 -29 3 -440 3 -440 28 -24 28 -24
1385 0 1386 0 29 29 29 29 0 436 0 435 -24 28 -24 28 -749 5 c-411 3 -1040 3
-1396 0z m2134 -49 l24 -19 0 -427 0 -427 -24 -19 c-23 -19 -57 -19 -1386 -19
-1200 1 -1364 3 -1383 16 -22 15 -22 16 -22 449 l0 434 22 15 c20 14 168 16
1384 16 1326 0 1362 -1 1385 -19z"/>
<path d="M3284 4191 c10 -16 -5 -41 -24 -41 -10 0 -28 -12 -39 -26 -24 -30
-24 -33 -11 -54 7 -12 13 -13 28 -3 15 9 22 9 31 0 8 -8 14 -8 23 1 8 8 8 12
1 12 -10 0 -4 45 13 103 4 11 0 17 -11 17 -9 0 -14 -4 -11 -9z m-16 -72 c-3
-23 -33 -48 -43 -37 -3 3 0 17 6 32 15 32 42 35 37 5z"/>
<path d="M3394 4178 c1 -15 -6 -24 -19 -26 -32 -6 -55 -33 -55 -64 0 -30 17
-37 38 -16 10 10 15 10 22 -2 13 -21 22 -7 25 43 1 24 6 53 9 65 5 15 3 22 -7
22 -8 0 -13 -9 -13 -22z m-10 -46 c3 -5 -2 -18 -10 -30 -19 -27 -46 -30 -37
-4 13 36 35 52 47 34z"/>
<path d="M3120 4133 c-18 -32 -38 -61 -44 -65 -6 -5 -2 -8 12 -8 12 0 21 3 21
8 -4 23 4 32 27 32 21 0 25 -4 21 -20 -4 -16 0 -20 21 -20 18 0 23 3 14 8 -7
5 -16 32 -21 61 -4 28 -10 54 -13 57 -3 3 -20 -21 -38 -53z m26 -20 c-11 -11
-19 6 -11 24 8 17 8 17 12 0 3 -10 2 -21 -1 -24z"/>
<path d="M3439 4146 c0 -1 -1 -20 -3 -43 -3 -48 8 -57 19 -15 3 15 16 35 28
44 22 17 22 17 -11 16 -17 -1 -32 -1 -33 -2z"/>
<path d="M3516 4125 c-10 -15 -14 -34 -11 -45 7 -21 39 -27 50 -9 4 6 0 9 -10
7 -28 -5 -28 17 0 30 14 6 25 18 25 27 0 24 -36 17 -54 -10z m44 11 c0 -2 -7
-9 -15 -16 -12 -10 -15 -10 -15 4 0 9 7 16 15 16 8 0 15 -2 15 -4z"/>
<path d="M3610 4135 c-10 -13 -10 -19 4 -33 18 -20 12 -34 -10 -25 -8 3 -14 0
-14 -6 0 -16 36 -13 50 4 10 13 10 19 -4 33 -20 23 -21 36 -1 28 8 -3 15 -1
15 4 0 15 -26 12 -40 -5z"/>
<path d="M3687 4143 c-11 -10 -8 -43 3 -43 6 0 10 -7 10 -16 0 -11 -6 -14 -21
-9 -15 5 -19 4 -15 -4 10 -16 31 -14 46 4 10 13 10 19 -4 33 -20 23 -21 36 -1
28 8 -3 15 -1 15 4 0 11 -23 13 -33 3z"/>
<path d="M3087 3973 c-16 -15 -6 -30 18 -25 22 4 25 1 25 -22 0 -15 -11 -44
-25 -66 -14 -22 -25 -42 -25 -45 0 -3 20 -5 45 -5 33 0 45 4 45 15 0 8 -9 15
-20 15 -23 0 -24 6 -5 40 18 31 19 72 3 88 -13 13 -50 16 -61 5z"/>
<path d="M3210 3965 c0 -9 9 -15 25 -15 30 0 31 -10 5 -77 -16 -41 -17 -52 -6
-56 10 -4 22 17 40 68 14 40 26 78 26 84 0 6 -19 11 -45 11 -33 0 -45 -4 -45
-15z"/>
<path d="M3427 3973 c-4 -3 -7 -42 -7 -85 0 -63 3 -78 15 -78 10 0 15 10 15
34 0 32 3 35 33 38 17 2 32 8 32 13 0 6 -15 11 -32 13 -24 2 -33 8 -33 22 0
14 8 20 32 22 51 5 47 28 -4 28 -25 0 -48 -3 -51 -7z"/>
<path d="M3560 3895 c0 -69 3 -85 15 -85 12 0 15 16 15 85 0 69 -3 85 -15 85
-12 0 -15 -16 -15 -85z"/>
<path d="M3640 3895 c0 -69 3 -85 15 -85 10 0 15 11 15 35 0 19 4 35 9 35 5 0
19 -16 31 -35 12 -19 28 -35 36 -35 11 0 10 8 -7 41 -15 30 -18 44 -10 52 31
31 -2 77 -55 77 l-34 0 0 -85z m65 35 c0 -8 -8 -16 -17 -18 -13 -2 -18 3 -18
18 0 15 5 20 18 18 9 -2 17 -10 17 -18z"/>
<path d="M3796 3965 c-12 -33 -5 -53 29 -80 28 -21 34 -30 25 -40 -8 -10 -18
-11 -36 -5 -18 7 -24 6 -24 -5 0 -18 34 -29 66 -21 49 13 37 84 -17 101 -11 4
-19 13 -19 22 0 11 8 14 30 11 24 -4 30 -1 28 11 -4 23 -73 28 -82 6z"/>
<path d="M3917 3974 c-11 -12 3 -24 27 -24 23 0 24 -4 24 -66 0 -60 5 -84 17
-73 2 3 5 35 6 71 2 64 3 67 27 70 14 2 27 9 30 16 3 9 -14 12 -60 12 -36 0
-68 -3 -71 -6z"/>
<path d="M4165 3957 c-19 -30 -11 -53 26 -73 38 -19 39 -46 2 -44 -43 3 -46 1
-33 -15 13 -16 57 -20 76 -7 24 16 23 54 -1 78 -13 13 -29 24 -35 24 -13 0
-13 27 0 35 5 3 19 1 31 -5 18 -10 20 -9 17 7 -5 30 -63 30 -83 0z"/>
<path d="M4285 3970 c-3 -6 1 -12 9 -15 9 -3 23 -7 31 -10 11 -3 15 -20 15
-70 0 -51 3 -65 15 -65 12 0 15 14 15 69 0 64 2 70 22 73 12 2 23 9 26 16 5
15 -123 17 -133 2z"/>
<path d="M4460 3895 c0 -69 3 -85 15 -85 10 0 15 11 15 35 0 19 4 35 9 35 5 0
18 -16 30 -35 25 -43 56 -49 40 -8 -6 15 -15 33 -21 41 -8 9 -8 16 0 24 32 32
-1 78 -54 78 l-34 0 0 -85z m65 35 c0 -8 -8 -16 -17 -18 -13 -2 -18 3 -18 18
0 15 5 20 18 18 9 -2 17 -10 17 -18z"/>
<path d="M4620 3895 l0 -85 45 0 c33 0 45 4 45 15 0 10 -11 15 -35 15 -28 0
-35 4 -35 20 0 16 7 20 35 20 24 0 35 5 35 15 0 11 -11 15 -36 15 -28 0 -35 3
-32 18 2 11 14 18 36 20 52 5 42 32 -13 32 l-45 0 0 -85z"/>
<path d="M4760 3895 l0 -85 45 0 c33 0 45 4 45 15 0 10 -10 15 -28 15 -34 0
-43 7 -35 26 3 8 18 14 34 14 19 0 29 5 29 15 0 10 -10 15 -30 15 -41 0 -44
37 -3 42 48 6 39 28 -11 28 l-46 0 0 -85z"/>
<path d="M4890 3965 c0 -9 9 -15 25 -15 24 0 25 -2 25 -70 0 -56 3 -70 15 -70
12 0 15 14 15 70 0 68 1 70 25 70 16 0 25 6 25 15 0 12 -14 15 -65 15 -51 0
-65 -3 -65 -15z"/>
<path d="M4104 3716 c-59 -26 -68 -106 -16 -147 55 -43 140 10 128 80 -10 61
-58 90 -112 67z m66 -36 c24 -24 25 -48 4 -78 -30 -43 -88 -18 -86 37 1 32 24
60 50 61 6 0 21 -9 32 -20z"/>
<path d="M4993 3723 c-21 -7 -15 -32 6 -26 27 7 36 -15 15 -38 -17 -18 -17
-20 1 -33 24 -17 13 -50 -15 -43 -11 3 -22 1 -25 -3 -8 -14 33 -32 55 -25 24
8 37 52 23 74 -7 11 -7 23 0 38 15 34 -23 68 -60 56z"/>
<path d="M3080 3701 c-13 -26 -1 -51 35 -75 36 -24 34 -50 -5 -42 -38 7 -42
-19 -5 -28 38 -10 65 9 65 45 0 23 -7 34 -35 51 -43 25 -40 44 4 40 23 -2 32
2 29 10 -3 7 -21 14 -41 16 -28 2 -38 -1 -47 -17z"/>
<path d="M3200 3710 c0 -5 11 -10 25 -10 24 0 25 -2 25 -70 0 -56 3 -70 15
-70 12 0 15 14 15 70 0 68 1 70 25 70 14 0 25 5 25 10 0 6 -28 10 -65 10 -37
0 -65 -4 -65 -10z"/>
<path d="M3393 3698 c-47 -95 -59 -187 -17 -123 21 32 49 32 79 -1 41 -44 45
-19 11 63 -33 82 -55 99 -73 61z m37 -60 c0 -10 -7 -18 -15 -18 -17 0 -18 4
-8 38 4 18 8 20 14 10 5 -7 9 -21 9 -30z"/>
<path d="M3530 3657 c0 -72 12 -94 57 -103 26 -5 37 -1 58 20 23 23 26 33 23
83 -4 75 -28 86 -28 13 0 -59 -13 -90 -38 -90 -31 0 -42 22 -42 82 0 45 -3 58
-15 58 -12 0 -15 -14 -15 -63z"/>
<path d="M3714 3707 c-9 -24 0 -152 11 -152 6 0 12 25 15 55 l5 55 44 -55 c24
-30 49 -55 55 -55 7 0 12 30 14 83 2 68 0 82 -13 82 -11 0 -15 -12 -15 -50 0
-27 -3 -50 -7 -50 -5 0 -24 23 -43 50 -35 50 -56 61 -66 37z"/>
<path d="M3900 3710 c0 -5 11 -10 25 -10 24 0 25 -2 25 -76 0 -56 3 -75 13
-72 8 3 13 30 15 76 3 69 4 72 27 72 14 0 25 5 25 10 0 6 -28 10 -65 10 -37 0
-65 -4 -65 -10z"/>
<path d="M4262 3638 c2 -54 7 -83 16 -86 9 -3 12 12 12 52 0 31 3 56 8 55 4 0
25 -23 47 -52 22 -28 45 -51 50 -51 6 -1 11 34 13 82 2 68 0 82 -13 82 -11 0
-15 -12 -15 -50 0 -27 -3 -50 -7 -50 -5 1 -24 23 -43 50 -20 28 -43 50 -53 50
-16 0 -17 -9 -15 -82z"/>
<path d="M4570 3716 c0 -6 61 -160 65 -164 5 -6 22 29 49 102 22 58 23 67 9
64 -9 -2 -23 -22 -32 -45 -8 -24 -18 -43 -22 -43 -3 0 -14 20 -23 45 -10 25
-24 45 -32 45 -8 0 -14 -2 -14 -4z"/>
<path d="M4754 3673 c-9 -27 -23 -63 -30 -80 -15 -38 -2 -53 20 -22 8 12 28
23 46 25 25 3 32 -1 40 -22 6 -14 15 -24 21 -22 15 5 14 11 -17 93 -35 91 -54
98 -80 28z m46 -12 c0 -5 3 -16 6 -25 4 -12 0 -16 -15 -16 -22 0 -25 8 -15 34
7 17 24 22 24 7z"/>
<path d="M5133 3672 c-41 -60 -41 -72 -4 -72 22 0 30 -5 33 -20 4 -30 20 -29
28 0 10 37 0 140 -14 140 -6 0 -26 -22 -43 -48z m27 -27 c0 -8 -7 -15 -16 -15
-14 0 -14 3 -4 15 7 8 14 15 16 15 2 0 4 -7 4 -15z"/>
<path d="M5250 3676 c0 -39 3 -45 23 -48 14 -2 22 -10 22 -23 0 -15 -7 -20
-28 -20 -20 1 -27 -4 -25 -15 5 -23 41 -24 69 -2 20 17 22 24 14 48 -6 16 -20
33 -33 39 -30 13 -28 35 3 35 16 0 25 6 25 15 0 10 -11 15 -35 15 -35 0 -35 0
-35 -44z"/>
<path d="M5392 3681 c-28 -49 -28 -92 -2 -116 42 -38 98 21 66 70 -9 14 -24
25 -32 25 -15 0 -15 2 0 25 19 30 20 35 3 35 -7 0 -23 -17 -35 -39z m43 -76
c0 -28 -29 -25 -33 3 -3 19 0 23 15 20 10 -2 18 -12 18 -23z"/>
<path d="M5510 3705 c0 -9 9 -15 25 -15 30 0 31 -13 5 -75 -24 -56 -24 -57 -4
-53 10 2 27 32 44 81 l27 77 -48 0 c-37 0 -49 -4 -49 -15z"/>
<path d="M4456 3582 c-3 -5 -2 -22 3 -38 7 -28 8 -29 19 -7 17 31 -4 74 -22
45z"/>
<path d="M6075 3995 c-161 -57 -116 -295 56 -295 80 0 149 69 149 149 0 108
-104 182 -205 146z m90 -155 c-27 -28 -54 -50 -60 -50 -21 0 -58 48 -51 66 6
16 9 16 28 -4 l22 -21 44 40 c32 30 47 38 55 30 8 -8 -2 -24 -38 -61z"/>
<path d="M5705 3261 c-11 -5 -28 -17 -38 -28 -16 -18 -17 -47 -18 -304 l-1
-284 31 -27 31 -28 915 0 915 0 30 28 30 27 1 277 c0 189 -3 284 -11 298 -27
51 -14 50 -972 49 -491 0 -902 -4 -913 -8z m1845 -51 c19 -19 20 -33 20 -283
0 -243 -1 -265 -18 -280 -17 -16 -96 -17 -927 -17 -834 0 -910 1 -927 16 -17
16 -18 37 -18 278 0 221 2 265 16 284 l15 22 910 0 c896 0 909 0 929 -20z"/>
<path d="M6399 3133 c-13 -16 -23 -37 -21 -50 5 -36 -17 -103 -34 -103 -11 0
-14 -6 -10 -16 3 -9 6 -67 6 -130 0 -107 1 -114 20 -114 19 0 20 7 20 119 0
87 -3 120 -12 124 -10 3 -10 7 -1 18 7 8 17 37 23 64 6 27 16 53 23 57 9 6 9
8 -1 8 -10 0 -10 5 -2 20 6 11 15 18 21 15 5 -4 9 -1 9 4 0 19 -16 12 -41 -16z"/>
<path d="M6509 3158 c0 -2 -2 -10 -4 -18 -2 -8 -8 -35 -14 -60 -8 -35 -7 -48
3 -58 19 -19 50 -1 66 38 16 39 3 58 -28 41 -19 -10 -20 -9 -11 21 5 18 9 34
9 35 0 4 -20 4 -21 1z m41 -79 c0 -20 -21 -49 -35 -49 -18 0 -19 14 -5 41 11
20 40 26 40 8z"/>
<path d="M6825 3148 c-2 -7 -9 -39 -15 -71 -12 -59 -8 -89 5 -45 8 25 34 58
46 58 4 0 5 -16 2 -36 -5 -29 -3 -36 8 -32 9 3 13 17 10 44 -3 46 -7 52 -23
36 -21 -21 -29 -13 -22 23 6 33 -2 50 -11 23z"/>
<path d="M5827 3142 c11 -7 6 -51 -14 -116 -5 -17 -1 -18 38 -13 30 4 51 14
66 32 27 31 29 52 7 83 -12 17 -25 22 -62 22 -26 0 -42 -4 -35 -8z m83 -23
c16 -28 5 -65 -25 -85 -35 -23 -47 -10 -39 44 4 26 8 50 11 55 9 15 43 6 53
-14z"/>
<path d="M6610 3130 c0 -5 5 -10 10 -10 6 0 10 5 10 10 0 6 -4 10 -10 10 -5 0
-10 -4 -10 -10z"/>
<path d="M6076 3108 c-18 -89 -13 -116 15 -81 12 14 12 16 0 8 -11 -6 -13 -4
-8 9 4 10 7 26 7 37 0 11 7 19 16 19 14 0 14 2 0 15 -20 20 -25 19 -30 -7z"/>
<path d="M6755 3116 c-6 -6 -11 -30 -13 -53 -2 -32 1 -43 12 -43 8 0 18 5 22
12 4 7 3 8 -4 4 -8 -5 -12 3 -12 23 0 16 6 34 14 38 11 6 11 11 2 19 -8 8 -14
8 -21 0z"/>
<path d="M5975 3085 c-36 -35 -32 -88 5 -65 8 5 19 5 26 -1 8 -6 16 -4 25 8
10 12 10 15 1 9 -10 -6 -11 2 -6 33 5 34 4 41 -10 41 -9 0 -28 -11 -41 -25z
m36 -14 c-6 -10 -17 -23 -25 -31 -14 -11 -16 -9 -16 8 0 11 7 28 16 36 20 21
37 11 25 -13z"/>
<path d="M6174 3094 c0 -9 -5 -19 -13 -22 -10 -3 -12 0 -7 14 7 17 6 17 -14
-1 -38 -34 -14 -88 29 -65 28 14 26 18 -4 12 -37 -7 -32 21 6 35 17 7 29 18
27 24 -7 20 -26 22 -24 3z"/>
<path d="M6322 3091 c9 -15 9 -25 0 -46 -17 -37 -36 -21 -29 24 6 33 5 34 -8
17 -34 -45 -3 -95 36 -60 25 23 33 52 19 69 -18 22 -32 18 -18 -4z"/>
<path d="M6605 3102 c-12 -8 -16 -82 -5 -82 7 0 24 80 18 86 -2 2 -8 0 -13 -4z"/>
<path d="M6669 3105 c0 0 -2 -20 -4 -45 l-4 -45 15 33 c8 18 21 35 29 38 24 9
17 22 -10 20 -14 0 -25 -1 -26 -1z"/>
<path d="M5837 2948 c-54 -42 -45 -204 12 -223 54 -17 91 31 91 117 0 92 -51
144 -103 106z m57 -44 c13 -33 6 -121 -10 -135 -14 -11 -18 -10 -30 6 -26 36
-12 145 20 145 7 0 17 -7 20 -16z"/>
<path d="M6023 2952 c-21 -13 -31 -55 -20 -85 7 -20 6 -32 -2 -40 -18 -18 -13
-65 11 -87 31 -28 72 -26 97 6 25 32 26 52 6 81 -10 14 -12 24 -5 28 17 10 11
71 -8 88 -19 18 -59 22 -79 9z m55 -51 c5 -33 -14 -49 -34 -29 -13 13 -14 20
-4 37 14 27 34 23 38 -8z m0 -83 c18 -18 15 -46 -6 -57 -33 -18 -58 29 -30 57
7 7 15 12 18 12 3 0 11 -5 18 -12z"/>
<path d="M6195 2844 c-25 -108 -27 -141 -6 -118 5 5 19 52 30 104 12 52 24
103 27 113 3 10 0 17 -9 17 -10 0 -22 -35 -42 -116z"/>
<path d="M6494 2947 c-3 -8 -4 -36 -2 -63 3 -45 5 -49 31 -52 34 -4 54 -37 36
-59 -9 -10 -23 -13 -46 -10 -28 5 -33 3 -33 -13 0 -13 9 -22 26 -26 92 -23
141 96 56 136 -44 21 -41 54 6 58 25 3 32 8 30 20 -4 23 -95 30 -104 9z"/>
<path d="M6674 2845 c-25 -107 -27 -142 -5 -119 5 5 18 52 30 105 11 53 23
103 27 112 4 11 1 17 -9 17 -11 0 -23 -31 -43 -115z"/>
<path d="M6820 2840 c0 -110 2 -121 18 -118 15 3 17 17 17 118 0 101 -2 115
-17 118 -16 3 -18 -8 -18 -118z"/>
<path d="M6980 2940 c-36 -36 -19 -120 25 -120 26 0 27 -21 1 -61 -24 -35 -24
-39 -8 -39 41 0 92 88 92 160 0 47 -27 80 -65 80 -14 0 -34 -9 -45 -20z m65
-55 c0 -23 -4 -30 -20 -30 -21 0 -31 25 -21 51 11 28 41 12 41 -21z"/>
<path d="M7170 2940 c-38 -38 -20 -120 25 -120 32 0 32 -15 0 -56 -30 -39 -31
-44 -7 -44 24 0 46 24 71 80 39 85 18 160 -44 160 -14 0 -34 -9 -45 -20z m67
-36 c7 -18 -6 -45 -25 -52 -15 -5 -33 33 -26 52 8 21 43 21 51 0z"/>
<path d="M7343 2953 c-28 -11 -13 -33 22 -33 30 0 35 -3 35 -24 0 -13 -7 -26
-15 -30 -21 -8 -19 -28 5 -49 11 -9 20 -21 20 -26 0 -18 -30 -33 -55 -27 -20
5 -25 3 -25 -13 0 -35 68 -43 100 -11 25 25 26 73 3 96 -13 13 -14 19 -5 22
21 7 15 80 -7 92 -20 10 -57 12 -78 3z"/>
<path d="M7904 3070 c-33 -13 -82 -77 -90 -115 -8 -45 18 -117 53 -145 101
-79 253 -10 253 114 0 83 -70 156 -149 155 -25 0 -55 -4 -67 -9z m146 -93 c0
-7 -24 -36 -53 -65 l-53 -52 -27 28 c-42 44 -29 75 15 35 18 -16 21 -15 61 25
44 44 57 51 57 29z"/>
<path d="M6555 1556 c-121 -38 -192 -122 -210 -247 -16 -112 58 -241 167 -290
l53 -24 960 0 c920 0 962 1 1009 19 234 90 241 424 12 528 l-51 23 -950 2
c-748 1 -959 -1 -990 -11z m265 -188 c0 -13 -60 -94 -114 -153 l-37 -40 -44
47 c-25 26 -45 52 -45 57 0 20 26 11 55 -19 16 -16 31 -30 34 -30 3 0 33 34
66 75 56 69 85 91 85 63z m247 -69 l29 -81 30 77 c26 70 46 97 60 82 6 -6 -31
-114 -53 -157 -7 -14 -13 -31 -13 -37 0 -7 -8 -13 -18 -13 -20 0 -41 43 -88
173 -12 34 -12 37 5 37 14 0 26 -20 48 -81z m303 66 c0 -11 -12 -15 -50 -15
-49 0 -50 -1 -50 -30 0 -29 2 -30 45 -30 33 0 45 -4 45 -15 0 -11 -12 -15 -45
-15 -43 0 -45 -1 -45 -30 0 -29 1 -30 50 -30 38 0 50 -4 50 -15 0 -12 -14 -15
-65 -15 l-65 0 0 105 0 105 65 0 c51 0 65 -3 65 -15z m192 -2 c23 -21 23 -68
-1 -92 -17 -17 -17 -19 0 -52 23 -43 23 -49 0 -49 -13 0 -24 13 -35 40 -13 32
-21 40 -41 40 -23 0 -25 -4 -25 -40 0 -29 -4 -40 -15 -40 -12 0 -15 18 -15
105 l0 105 57 0 c38 0 62 -5 75 -17z m108 -88 c0 -87 -3 -105 -15 -105 -12 0
-15 18 -15 105 0 87 3 105 15 105 12 0 15 -18 15 -105z m197 90 c0 -11 -12
-15 -49 -15 -47 0 -48 -1 -48 -30 0 -28 2 -30 40 -30 29 0 40 -4 40 -15 0 -11
-11 -15 -40 -15 l-40 0 0 -45 c0 -38 -3 -45 -20 -45 -19 0 -20 7 -20 105 l0
105 68 0 c54 0 69 -3 69 -15z m83 -90 c0 -98 -1 -105 -20 -105 -19 0 -20 7
-20 98 0 100 3 112 27 112 10 0 13 -24 13 -105z m194 90 c4 -12 -4 -15 -44
-15 -49 0 -50 -1 -50 -30 0 -29 2 -30 45 -30 33 0 45 -4 45 -15 0 -11 -12 -15
-45 -15 -43 0 -45 -1 -45 -29 0 -28 2 -30 47 -33 26 -2 48 -9 51 -15 3 -10
-15 -13 -67 -13 l-71 0 0 105 0 105 64 0 c48 0 65 -4 70 -15z m192 -3 c45 -36
56 -90 29 -143 -19 -36 -50 -49 -116 -49 l-49 0 0 105 0 105 58 0 c39 0 64 -6
78 -18z"/>
<path d="M7460 1315 c0 -33 2 -35 34 -35 42 0 62 21 46 49 -8 15 -21 21 -45
21 -33 0 -35 -2 -35 -35z"/>
<path d="M8236 1334 c-3 -9 -6 -42 -6 -75 l0 -59 35 0 c51 0 87 38 80 82 -3
18 -15 41 -26 51 -27 21 -75 22 -83 1z"/>
</g>
</svg>
